<?xml version="1.0" standalone="no"?><!DOCTYPE svg PUBLIC "-//W3C//DTD SVG 1.1//EN" "http://www.w3.org/Graphics/SVG/1.1/DTD/svg11.dtd"><svg t="1653836891285" class="icon" viewBox="0 0 1024 1024" version="1.1" xmlns="http://www.w3.org/2000/svg" p-id="2587" xmlns:xlink="http://www.w3.org/1999/xlink" width="200" height="200"><defs><style type="text/css"></style></defs><path d="M305.92 170.666667A128.042667 128.042667 0 0 1 426.666667 85.333333h85.333333c55.722667 0 103.125333 35.626667 120.746667 85.333334H682.666667a85.333333 85.333333 0 0 1 85.333333 85.333333v128a85.333333 85.333333 0 0 1 85.333333 85.333333v384a85.333333 85.333333 0 0 1-85.333333 85.333334h-341.333333a85.333333 85.333333 0 0 1-85.333334-85.333334H256a85.333333 85.333333 0 0 1-85.333333-85.333333V256a85.333333 85.333333 0 0 1 85.333333-85.333333h49.92z m0 85.333333H273.066667a17.066667 17.066667 0 0 0-17.066667 17.066667v477.866666c0 9.386667 7.68 17.066667 17.066667 17.066667H341.333333v-298.666667a85.333333 85.333333 0 0 1 85.333334-85.333333h256V273.066667a17.066667 17.066667 0 0 0-17.066667-17.066667h-32.853333A128.042667 128.042667 0 0 1 512 341.333333h-85.333333a128.042667 128.042667 0 0 1-120.746667-85.333333zM426.666667 170.666667a42.666667 42.666667 0 1 0 0 85.333333h85.333333a42.666667 42.666667 0 0 0 0-85.333333h-85.333333z m0 315.733333v349.866667c0 9.386667 7.68 17.066667 17.066666 17.066666h307.2a17.066667 17.066667 0 0 0 17.066667-17.066666v-349.866667a17.066667 17.066667 0 0 0-17.066667-17.066667h-307.2a17.066667 17.066667 0 0 0-17.066666 17.066667z m85.333333 196.266667h170.666667a42.666667 42.666667 0 0 1 0 85.333333h-170.666667a42.666667 42.666667 0 0 1 0-85.333333z m0-128h170.666667a42.666667 42.666667 0 0 1 0 85.333333h-170.666667a42.666667 42.666667 0 0 1 0-85.333333z" p-id="2588" fill="#8a8a8a"></path></svg>
